<svg xmlns="http://www.w3.org/2000/svg" xmlns:xlink="http://www.w3.org/1999/xlink" viewBox="0 0 16373.11 16405.79"><defs><linearGradient id="Gold_Dust" x1="-7540.71" y1="5302.15" x2="8832" y2="5302.15" gradientUnits="userSpaceOnUse"><stop offset="0" stop-color="#ff7300"/><stop offset="0.18" stop-color="#f97c01"/><stop offset="0.47" stop-color="#ea9602"/><stop offset="0.55" stop-color="#e59e03"/><stop offset="0.87" stop-color="#e5c500"/><stop offset="0.99" stop-color="#bf6f00"/></linearGradient><linearGradient id="linear-gradient" x1="-7541.11" y1="2041.74" x2="8795.3" y2="2041.74" gradientUnits="userSpaceOnUse"><stop offset="0" stop-color="#009245"/><stop offset="0.48" stop-color="#00edff"/><stop offset="1" stop-color="blue"/></linearGradient><linearGradient id="linear-gradient-2" x1="-6145.82" y1="1411.85" x2="-4767.43" y2="1873.27" gradientUnits="userSpaceOnUse"><stop offset="0" stop-color="#ccc"/><stop offset="0.19" stop-color="#cecece"/><stop offset="0.3" stop-color="#d7d7d7"/><stop offset="0.39" stop-color="#e4e4e4"/><stop offset="0.46" stop-color="#f8f8f8"/><stop offset="0.48" stop-color="#fff"/><stop offset="0.51" stop-color="#f6f6f6"/><stop offset="0.59" stop-color="#e4e4e4"/><stop offset="0.67" stop-color="#d6d6d6"/><stop offset="0.79" stop-color="#cecece"/><stop offset="1" stop-color="#ccc"/></linearGradient><linearGradient id="linear-gradient-3" x1="3752.16" y1="2474.79" x2="5132.49" y2="2936.86" gradientTransform="matrix(1.07, 0.04, -0.05, 1.3, -8.79, -172.55)" xlink:href="#linear-gradient-2"/></defs><g id="Layer_15" data-name="Layer 15"><path d="M8832,5320.11C8832,7127.16,5174.89,8592,663.8,8592c-4511.29,0-8168.2-1464.84-8168.2-3271.89l-36.31-3279.37c12.56,598,425.9,1157.68,1137,1638.1C-4980.95,4640-2364.86,5284.19,627.1,5284.19c3017.66,0,5653.18-655.42,7067.51-1630.63,699.9-482.15,1100.69-1043,1100.69-1641.27l36.31,3279.37Z" transform="translate(7541.11 7813.79)" style="opacity:0.8;fill:url(#Gold_Dust)"/><path d="M8795.3,2012.29c0,598.24-400.79,1159.12-1100.69,1641.27C6280.28,4628.77,3644.76,5284.19,627.1,5284.19c-2992,0-5608-644.21-7030.82-1605.35-711.09-480.42-1124.43-1040.15-1137-1638.1l-.4-28.45c0-959.12,1030.43-1822,2672-2420.52-17.46,37.36-39.64,69-40.43,156C-4911.27-68-4794.89,39.73-4688.9,246.61c96.76,189.07,206.28,356.87,308.93,408.59,27.09,14.08,53.39,19.83,79.1,15.81,18.05-2.88,35.72-10.35,52.79-23.28,112.47-85.05,264-118.67,374.29-185.9,122.67-74.71,237.69,144,314,9.77,362.31-636.74,149.16-663.46,234.74-786.44,24.73-35.63,400.19,69.53,493.42-103.73,58.69-108.9-91.26-306-182.14-499.1,423.16-84.19,867.13-154.59,1328.17-208.9V779.91H794.91L2032-175.77v-.29L2178.42-289V-1200.7c556.23,42.81,1092.25,108.33,1602.16,194,57.7,61.21,128.16,103.16,176.45,122.69,97.35,39.66,185.47-4.88,256.72-44q84.49,16.38,167.81,33.62c20.8,129.59,97.74,828.1,7.46,1202.79-18.65,76.43-221.4,200.27-218.26,235.62,20,230.73,502.65,61.77,574.69,24.71C5152.32,359.25,4526.8-553.33,4852.22-727.46c28.65-15.22,54.56-29.88,83.8-40.51q205.8,51.29,402.95,107.46c116.58,104.88,199.41,233.32,341.9,206.89,49.66-9.2,93.43-34.77,133.86-61.49C7634.75,84.84,8795.3,994.26,8795.3,2012.29Z" transform="translate(7541.11 7813.79)" style="opacity:0.5;fill:url(#linear-gradient)"/></g><g id="boxs"><g id="Layer_5" data-name="Layer 5"><rect x="5855.54" y="6130.36" width="2480.47" height="2463.33" style="fill:blue"/><polygon points="9719.53 5061.48 9719.53 7524.81 9573.11 7637.73 9573.11 7638.02 8336.01 8593.7 8336.01 6130.36 9719.53 5061.48" style="fill:#0080f9"/><polygon points="9719.53 5061.48 8336.01 6130.36 5855.54 6130.36 6461.23 5662.29 6669.67 5501.39 6784.69 5412.6 6831.79 5376.11 6856.72 5356.85 7008.83 5239.34 7058.88 5200.83 7071.44 5191.06 7210.01 5083.89 7210.4 5083.6 7239.06 5061.48 9719.53 5061.48" style="fill:#00d3ff"/><text transform="translate(6553.72 8012.14) scale(0.68 1)" style="font-size:1203.2723388671875px;fill:#fff;font-family:ArialRoundedMTBold, Arial Rounded MT Bold">C</text></g><g id="Layer_11" data-name="Layer 11"><rect x="6461.31" y="4312.97" width="1795.71" height="1590.3" style="fill:#ffef00"/><polygon points="9258.61 3623.05 9258.61 5213.2 8257.03 5903.27 8257.03 4312.97 9258.61 3623.05" style="fill:#ff0"/><polygon points="9258.61 3623.05 8257.03 4312.97 6461.31 4312.97 7462.9 3623.05 9258.61 3623.05" style="fill:#d3ff00"/><g id="Layer_14" data-name="Layer 14"><ellipse cx="7349.74" cy="5475.19" rx="847.6" ry="362.54" style="fill:blue;opacity:0.14"/><path d="M-607.8-3321.09c-72.23-59.44-159.32-9.51-195.52,110.55-19.18,63.64-20,189.72,11.79,236.28,47,69,112.62,20.8,110.93,34.68-4.5,37.06-78.6,120.63-81.12,181-.29,7,.09,23.54-4.16,45.52-4.42,22.85-10.29,46.57-9.71,59.61.94,21,14.46,9.91,16,31.75,1.22,17.44-6.13,14.75-6.28,32.2-.18,20.41,11.89,32.36,22.88,55.27,14.56,30.35,31.85,55.67,45.76,44.44,11.66-9.42,27.39-13.15,38.83-20.59,12.72-8.29,24.67,15.93,32.58,1.08,37.61-70.57,15.48-73.51,24.36-87.13,2.58-4,41.54,7.68,51.22-11.5,9.48-18.79-33.51-61.26-24.27-88.87,8.66-25.87,34-17.56,55.47-54.19,9.72-16.58,27.44-28,22.18-37.94-6.24-11.8-32.28-2.17-38.13,1.09-18.87,10.5-25.28,12-29.12,22.76-1.57,4.41-38.55-87.17-37.44-127.37.81-29.12,36-25.67,64.48-35.21,32.33-10.83,41.83-56.39,58.24-148.48,7.25-40.69,31.1-38.8,33.28-124.64,1.76-69.26-52.79-140.35-106.08-143.07C-576.61-3345.12-596.53-3331.06-607.8-3321.09Z" transform="translate(7541.11 7813.79)" style="fill:lime"/><path d="M138.93-3160.24c1.8-10.76,1.1-21.76-1-32.5s-34.7-64.44-30.87-70.9c4.21-7.1,24.13,1.67,29.82-7.15,6.79-10.52-12.78-46.93-4.86-62.86,5.33-10.71,14.32-13.23,29.12-24.29,14.28-10.66,14.89-13.9,26.35-25.56,16.17-16.46,33.77-25.34,61.71-22.12,44.13,5.08,46.76-28.15,81.12-20.6,40.86,9,37.47,47.55,64.48,33.6,4.58-2.36,19.36,39.1,27,45.52,7.21,6,26.24,22,31.31,23.15,6.49,1.43,12.76-17.22,19.3-23.79,46.24-46.46,108.79,71.65,88.75,179.92-8,43.34-41.64,110.57-64.48,153.9a72.94,72.94,0,0,0-8.32,29.26c-1.14,16.35,3.22,32.63,6.24,32.52,3.23-.12,7-19.42,11-20,3.38-.48,5.39,12.58,4.93,23.25-1.11,25.9-36.13,50.9-61,43.35-31-9.39-35.42-51.17-45.07-81.73-10-31.64-26,13.81-59.62,4.78-25.57-6.86-35.22-29.51-61.71-26-10.56,1.4-17.91,6.17-22.19,15.17-3.48,7.33-5.88,19.43-2.77,26,2.28,4.83,6.21,3.93,9,5.42,15.27,8.13,3.73,83,20.8,110.11,19.17,30.4,35.68-27.11,58.94,5.42,14,19.53,39.88-7.29,33.29,20.24-3.7,15.44-11.74,84.42-35.37,107-26.1,25-26.22,37.52-25.66,43.35.82,8.39,6.65,16.42,11.79,16.26,7.23-.23,7.09,7.63,19.41,2.81,5.55-2.17,11-37.84,21.5-33.16,15.25,6.79,25.54,37.66,20.8,57.45-1.66,6.92-5.85,15.37-11.1,16.25-4.81.81-7.57-5.23-11.78-8.67-11.34-9.25-21.36,10-36.75,13-24.15,4.77-31.74-36.17-65.17-36.85-9.55-.2-14.57,2.94-20.8,6.5-33.77,19.31,31.12,120.43-11.1,143.63-7.46,4.1-57.54,22.84-59.62-2.73-.32-3.94,20.71-17.63,22.63-26.13,10.05-44.49.16-130.28-1.14-135.36-5.13-20-22.3,12.59-43.68,3.25-9.3-4.06-26.62-16.59-28.43-35.77-3.18-33.61,30.54-54.37,38.83-114.24,3.52-25.44,14.09-50.14,3.47-58.08-13.06-9.77-35.14,6.44-56.16,2.81-27-4.67-23.6-48-49.23-46.17-10.2.75-14,11-22.88,6.51-13.22-6.62-21.71-37.6-16.64-47.69,2.94-5.87,4.4-6.42,22.18-5.57,18.66.9,84.66,41.35,105.16,41.26,18.77-.08-7.7-52.12-19.87-52.39-5.67-.13-11.63-9.23-62.41-40.1-10-6.08-15.59-30.23-17.33-36.85-8.91-34.06,43.11,13,47.84,19.51,6.83,9.4,47.93,6.09,57.62,28.5,3.72,8.61-7.88-19.16-10.47-30.23-3.54-15.09-15.49-12.2-22.88-29.26-6.14-14.18-4.5-31.45-3.47-42.27C122.67-3132.77,135.06-3137.25,138.93-3160.24Z" transform="translate(7541.11 7813.79)" style="fill:blue"/><path d="M-624.09-2091.45c-65.34,23.39-143.41-.71-175.27-53.42-16.89-27.94-16.87-82.18,12-101.24,42.75-28.24,101.46-5.55,100-11.57-3.83-16.07-70-54.24-71.92-80.27-.22-3,.22-10.12-3.47-19.7-3.85-10-9-20.34-8.39-25.93,1-9,13.07-3.82,14.57-13.16,1.21-7.47-5.42-6.53-5.46-14,0-8.78,10.89-13.56,20.92-23.08,13.28-12.61,29-23,41.43-17.72,10.43,4.4,24.57,6.47,34.82,10,11.4,3.95,22.29-6.11,29.32.52,33.43,31.47,13.49,32.07,21.4,38.2,2.3,1.77,37.42-2,46,6.48,8.42,8.37-30.51,25.33-22.36,37.49,7.64,11.38,30.47,8.57,49.59,25,8.65,7.42,24.53,12.87,19.74,17-5.69,4.89-29.06,0-34.31-1.62-16.91-5.08-22.67-5.9-26.06-10.66-1.39-1.94-35.21,36.32-34.44,53.64.55,12.54,32.25,12.12,57.81,17.08,29,5.63,37.3,25.51,51.52,65.6,6.29,17.71,27.76,17.62,29.21,54.6,1.18,29.83-48.32,58.75-96.29,58.31A124,124,0,0,1-624.09-2091.45Z" transform="translate(7541.11 7813.79)" style="opacity:0.19"/><path d="M150.24-2192.64a24.81,24.81,0,0,1-1.57,13.45c-1.64,4.25-23.64,23.25-21.42,26.34,2.45,3.4,15.22,1.83,18.55,6.1,4,5.09-9.37,18.23-4.84,25.71,3,5,8.63,7,17.63,13.17,8.68,5.94,9,7.35,15.85,13.41,9.7,8.56,20.52,14.1,38.18,15.67,27.9,2.49,28.61,16.62,50.43,17.06,25.95.52,24.91-15.92,41.5-7.28,2.82,1.46,13.29-14.28,18.3-16.16,4.7-1.76,17.13-6.45,20.35-6.38,4.12.08,7.53,8.51,11.46,11.93,27.76,24.21,70.45-18.52,60.91-65.77-3.81-18.91-23.05-50.46-36.19-70.92a26.52,26.52,0,0,1-4.4-13.07c-.25-6.94,2.95-13.27,4.85-12.91s3.85,8.83,6.35,9.49c2.12.55,3.75-4.68,3.77-9.18,0-10.92-21.28-25-37.15-24.45-19.75.68-23.72,17.64-30.66,29.38-7.17,12.15-15.95-8.48-37.36-8.22-16.27.19-23,8.63-39.54,4.4-6.61-1.68-11.09-4.44-13.53-8.64-2-3.42-3.15-8.72-1-11.14,1.56-1.77,4-1,5.82-1.32,9.83-1.79,4.69-34.24,16.2-43.75,12.92-10.67,21.67,15,37.22,3.9,9.33-6.69,24.87,7.2,21.51-5-1.89-6.83-5-36.43-19.22-48.32-15.7-13.14-15.42-18.39-14.9-20.76.75-3.42,4.65-6.16,7.87-5.55,4.54.85,4.67-2.44,12.29.85,3.43,1.49,5.82,16.93,12.58,16.08,9.79-1.24,17.13-13,14.71-21.79-.85-3.06-3.24-7-6.52-7.94-3-.84-4.91,1.39-7.66,2.39-7.39,2.67-13.15-6.39-22.74-9.26-15.05-4.52-21,11.77-42,8.56-6-.92-9.08-2.75-12.9-4.88-20.69-11.58,23-47-2.9-61.06-4.58-2.49-35.55-15.54-37.58-5.09-.31,1.61,12.53,9.52,13.5,13.26,5.06,19.61-3.6,54.35-4.56,56.33-3.79,7.81-13.67-7.58-27.38-5.91-6,.72-17.21,4.14-18.89,11.94-2.95,13.69,17.67,25.87,21.18,51.71,1.5,11,7.44,22.38.54,24.58-8.49,2.71-21.92-6.35-35.24-7-17.1-.88-16.21,17.56-32.27,14.11-6.39-1.38-8.48-6-14.21-5.1-8.5,1.38-14.71,13.41-11.81,18.15,1.68,2.75,2.58,3.13,13.79,4.64,11.76,1.57,54.42-8.41,67.3-6.23,11.81,2-6.32,20.93-14,19.78-3.57-.54-7.57,2.63-40.38,10.2-6.45,1.49-10.67,11-11.94,13.56-6.58,13.27,27.47-.91,30.64-3.14,4.55-3.21,30.31,2.47,37-5.87,2.58-3.2-5.5,7.17-7.44,11.51-2.66,5.93-10.09,3.48-15.22,9.82-4.26,5.27-3.72,12.65-3.38,17.27C140.8-2205.8,148.46-2202.63,150.24-2192.64Z" transform="translate(7541.11 7813.79)" style="opacity:0.27"/><path d="M-431.34-2475.14l135.06-1.07H-173L-28-2597.82l13.15,431.19-44.36,10.1-4,52.83-60.59,12.38-2.59,52.09-67.3,20.14-78.91-34.4.61-48.84-63.61-18.51,1.08-54.21-56.6-18.52m119.05,32.85,0,6.1,2.48.82,7.8-2.23Zm135.42,22.82v-1l-1.4.31Zm0-12.3v1.49l2.87,0Z" transform="translate(7541.11 7813.79)" style="opacity:0.27"/><rect x="7109.77" y="5065.69" width="257.39" height="272.96" style="fill:#0000e9"/><polygon points="7513.13 4943.03 7513.13 5215.97 7369.56 5334.41 7369.56 5061.45 7513.13 4943.03" style="fill:#0080f9"/><polygon points="7510.72 4947.27 7367.16 5065.69 7109.77 5065.69 7253.33 4947.27 7510.72 4947.27" style="fill:#00d3ff"/><rect x="7172.63" y="4864.33" width="186.34" height="176.21" style="fill:#00c300"/><polygon points="7462.9 4787.89 7462.9 4964.08 7358.97 5040.54 7358.97 4864.33 7462.9 4787.89" style="fill:lime"/><polygon points="7462.9 4787.89 7358.97 4864.33 7172.63 4864.33 7276.56 4787.89 7462.9 4787.89" style="fill:#0f6"/><rect x="7243.98" y="4715.62" width="99.99" height="140.46" style="fill:#ff6a00"/><polygon points="7399.75 4654.68 7399.75 4795.13 7343.97 4856.08 7343.97 4715.62 7399.75 4654.68" style="fill:red"/><polygon points="7399.75 4654.68 7343.97 4715.62 7243.98 4715.62 7299.75 4654.68 7399.75 4654.68" style="fill:#ff0070"/><rect x="7034.96" y="5007.25" width="22.51" height="36.77" style="fill:#ff0"/><polygon points="7069.81 5053.99 7034.96 5053.99 7022.62 5044.02 7057.47 5044.02 7069.81 5053.99" style="fill:#ffe100"/><polygon points="7069.81 5007.25 7069.81 5053.99 7057.47 5044.02 7057.47 4997.29 7069.81 5007.25" style="fill:#ff6700"/><rect x="7022.62" y="4997.29" width="34.85" height="46.74" style="fill:#ffac00"/></g><path d="M1413.84-3395.14q.39-30.87.77-61.74c.77-66.84,1.57-133.77,1.4-200.55-.07-26.48,3.3-56.88-2.44-82.89-3.43,2.58-6.47,4.86-14.24,10.91,2,372.64-5.95,745.26-3.92,1117.9,4.93-8.11,6.48-11.14,8.24-14.56,3.31-28.48,1.25-58.34,1.46-86.94q.71-100.63,1.77-201.27.34-29.61.74-59.21c.93-70.15,2.19-140.3,2.85-210.46C1411.94-3254.34,1412.9-3324.74,1413.84-3395.14Zm-6.71,423.74q-.36,28.74-.69,57.49c-.38,33.65-.73,67.32-1.26,100.94-.22,14.37.47,29.37-1.22,43.71-1.3,2.24-2.29,3.91-5,8.19q.43-170.17,2.43-340.34c3.28-3.92,4.52-5.45,6.18-7.51,1.2,13.07.64,26.45.59,39.55C1408-3036.76,1407.54-3004.06,1407.13-2971.4Zm6.79-484.69q-.33,29.21-.7,58.42c-.44,33.42-.9,66.89-1.76,100.25-.36,13.92.53,29.1-1.91,42.94-1.81,2-3.16,3.42-6.68,7.18q1.74-170.88,2.46-341.76c4.06-3.4,5.66-4.72,7.83-6.49,1.75,13.28,1.18,27.09,1.27,40.44C1414.64-3522.17,1414.28-3489.1,1413.92-3456.09Z" transform="translate(7541.11 7813.79)"/></g><g id="Layer_12" data-name="Layer 12"><rect x="7148.93" y="2970.78" width="963.61" height="1267.7" style="fill:#ff6a00"/><polygon points="8650 2420.8 8650 3688.39 8112.54 4238.48 8112.54 2970.78 8650 2420.8" style="fill:red"/><polygon points="8650 2420.8 8112.54 2970.78 7148.93 2970.78 7686.39 2420.8 8650 2420.8" style="fill:#ff0070"/><text transform="translate(7294 4062.33) scale(0.68 1)" style="font-size:978.79638671875px;fill:#fff;font-family:ArialRoundedMTBold, Arial Rounded MT Bold">A</text></g><g id="Layer_10" data-name="Layer 10"><rect x="5134.64" y="5602.81" width="216.88" height="331.87" style="fill:#ff0"/><polygon points="5470.46 6024.62 5134.64 6024.62 5015.7 5934.69 5351.52 5934.69 5470.46 6024.62" style="fill:#ffe100"/><polygon points="5470.46 5602.81 5470.46 6024.62 5351.52 5934.69 5351.52 5512.88 5470.46 5602.81" style="fill:#ff6700"/><rect x="5015.7" y="5512.88" width="335.82" height="421.81" style="fill:#ffac00"/></g><g id="Layer_16" data-name="Layer 16"><path d="M-1900.09,3326c0,166.37-205.49,301.13-459.08,301.13s-459.07-134.76-459.07-301.13,205.49-301.41,459.07-301.41S-1900.09,3159.63-1900.09,3326Z" transform="translate(7541.11 7813.79)" style="fill:red"/><path d="M-1900.09,3326v998.5c0,166.36-205.49,301.41-459.08,301.41s-459.07-135-459.07-301.41V3326c0,166.37,205.49,301.13,459.07,301.13S-1900.09,3492.36-1900.09,3326Z" transform="translate(7541.11 7813.79)" style="fill:#ff6d00"/></g><g id="Layer_20" data-name="Layer 20"><path d="M6299.52,1400.12c90.07,0,163,231.26,163,516.62s-73,516.62-163,516.62-163.2-231.25-163.2-516.62S6209.44,1400.12,6299.52,1400.12Z" transform="translate(7541.11 7813.79)" style="fill:lime"/><path d="M6299.52,1400.12h540.61c90.08,0,163.2,231.26,163.2,516.62s-73.12,516.62-163.2,516.62H6299.52c90.07,0,163-231.25,163-516.62S6389.59,1400.12,6299.52,1400.12Z" transform="translate(7541.11 7813.79)" style="fill:#006837"/><ellipse cx="4142.96" cy="11759.57" rx="416.53" ry="506.14" style="fill:blue"/></g><g id="Layer_13" data-name="Layer 13"><polygon points="9177.33 9741.89 10206.77 9741.89 10571.44 10033.54 9542 10033.54 9177.33 9741.89" style="fill:#ffe100"/><polygon points="9177.33 11109.32 9177.33 9741.89 9542 10033.54 9542 11400.97 9177.33 11109.32" style="fill:#ff6700"/><rect x="9542" y="10033.54" width="1029.44" height="1367.43" style="fill:#ffac00"/></g><g id="Layer_21" data-name="Layer 21"><polygon points="7878.11 9537.59 7878.11 10498.11 7533.18 10838.37 7533.18 9877.85 7878.11 9537.59" style="fill:#ff0063"/><polygon points="6260.84 9537.6 7878.11 9537.59 7533.18 9877.85 5915.91 9877.85 6260.84 9537.6" style="fill:red"/><rect x="5915.91" y="9877.85" width="1617.27" height="960.52" style="fill:#ff6900"/></g><g id="book"><path d="M-4730.8,2029.51v151.71H-6441.3V2029.51l12.36-35.92c45.93-66.37,214.53-115.51,415.31-115.51,229.24,0,416.49,64.08,427.09,144.24a44.7,44.7,0,0,1,.59,7.19,48.1,48.1,0,0,1,.58-7.47c11-80.17,197.84-144,426.89-144,222.38,0,404.91,60.06,425.71,136.77A53.58,53.58,0,0,1-4730.8,2029.51Z" transform="translate(7541.11 7813.79)" style="fill:#999"/><path d="M-6428.94,1993.59l-12.36,35.92C-6441.3,2017.15-6437,2004.8-6428.94,1993.59Z" transform="translate(7541.11 7813.79)" style="fill:#ff6900"/><path d="M-4494.3,1353.41v151.71l-236.5,676.1V2029.51a53.58,53.58,0,0,0-2-14.66h2l182.33-509.73Z" transform="translate(7541.11 7813.79)" style="fill:#666"/><path d="M-4494.3,1353.41l-54.17,151.71-182.33,509.73h-2c-20.8-76.71-203.33-136.77-425.71-136.77-229.05,0-415.9,63.79-426.89,144l-1.17.28c-10.6-80.16-197.85-144.24-427.09-144.24-200.78,0-369.38,49.14-415.31,115.51l225.52-652.83.59-1.72c10.2-38.5,61-72.7,137-97.41,76-24.42,177.23-39.65,288.52-39.65,229.25,0,416.68,64.08,427.28,144.24a44.7,44.7,0,0,1,.59,7.19,44.7,44.7,0,0,1,.59-7.19c10.6-80.16,197.64-144.24,426.69-144.24C-4685.66,1202-4494.3,1269.79-4494.3,1353.41Z" transform="translate(7541.11 7813.79)" style="fill:url(#linear-gradient-2)"/><path d="M-5348.86,1346.22a44.7,44.7,0,0,0-.59,7.19,44.7,44.7,0,0,0-.59-7.19Z" transform="translate(7541.11 7813.79)" style="fill:#ff6900"/></g><g id="Layer_22" data-name="Layer 22"><path d="M5371.74,4076.63l-4.95,197.8L3539,4176.34l5-197.81,14.38-46.12c51.25-83.91,233-138.3,447.57-126.79,245,13.15,443,107.43,451.67,212.56a70.59,70.59,0,0,1,.39,9.4,75.35,75.35,0,0,1,.88-9.7c14.36-103.9,216.11-176.35,460.87-163.21,237.62,12.75,430.72,101.52,450.44,202.74A85.27,85.27,0,0,1,5371.74,4076.63Z" transform="translate(7541.11 7813.79)" style="fill:#999"/><path d="M3558.3,3932.41l-14.38,46.12A90.49,90.49,0,0,1,3558.3,3932.41Z" transform="translate(7541.11 7813.79)" style="fill:#ff6900"/><path d="M5646.54,3208.67l-4.95,197.81-274.8,868,4.95-197.8a85.27,85.27,0,0,0-1.62-19.22l2.1.11,211.48-654.15Z" transform="translate(7541.11 7813.79)" style="fill:#666"/><path d="M5646.54,3208.67l-62.84,194.7-211.48,654.15-2.1-.11c-19.72-101.22-212.82-190-450.44-202.74-244.76-13.14-446.51,59.31-460.87,163.21l-1.27.3c-8.71-105.13-206.7-199.41-451.67-212.56-214.56-11.51-396.32,42.88-447.57,126.79l262.3-838.24.68-2.21c12.17-49.62,67.6-91.28,149.58-119.15,82-27.49,190.68-41.53,309.6-35.15,245,13.15,443.17,107.44,451.88,212.57a70.54,70.54,0,0,1,.4,9.4,69.59,69.59,0,0,1,.86-9.33c13.94-103.92,215.91-176.74,460.67-163.6C5447,3000.26,5649.27,3099.65,5646.54,3208.67Z" transform="translate(7541.11 7813.79)" style="fill:url(#linear-gradient-3)"/><path d="M4733.6,3150.3a69.59,69.59,0,0,0-.86,9.33,70.54,70.54,0,0,0-.4-9.4Z" transform="translate(7541.11 7813.79)" style="fill:#ff6900"/></g></g><g id="Layer_18" data-name="Layer 18"><path d="M-3246.69,3151.1A1008.6,1008.6,0,0,1-3637.4,3107c-494.14,209.91-1101.45,97.72-1363-247.3-80.08-105.51-119.74-276.25-97.32-431.62,16.29-113.3,65.82-218.37,156.88-283.37,319.08-227.49,777.19-111.29,764.18-152.25-34.64-109.3-555-328.33-578.15-508.41-2.67-20.93-1.57-70.79-32.91-135.12-32.76-66.56-75.55-135.34-72.72-174.74,4.54-63.44,99-36.06,107.51-102.4,6.89-53-43.73-41.62-46.39-93.93-3.14-61.22,79.3-102.4,153.12-176.08,86.19-85.7,187.44-160.71,276.77-158.49a138,138,0,0,1,35.73,5.35c8.78,2.45,18,4.89,27.43,6.9,77.42,17.36,171.92,22.48,243.08,38.06,88.86,19.37,169.26-58.54,225.37-17.36,266.74,195.66,113.93,214.14,176.62,251.09,18.18,10.91,286.65-41,355.45,12.46,67.39,52.32-226.15,198.56-159.54,277.36,62.22,74.13,236.65,38.07,388.67,138.9,69,45.63,192.61,72.12,157.19,104.4-42.16,38.06-223.17,20.48-264.08,13.13-131.49-23.37-176-24.93-203.58-55.65-11.13-12.68-258.59,278.47-247.15,398.68,8.31,87.25,251.54,61.66,449.48,77.9a515.57,515.57,0,0,1,52.5,6.91c184,34.5,252.17,166.72,364.23,414,54.07,119.09,218.78,103.06,242,359.94C-2507.58,2882.64-2878.23,3119.93-3246.69,3151.1Z" transform="translate(7541.11 7813.79)" style="opacity:0.1"/><path d="M5450.49,3317.56c-32-23.22-60-80.75-93.6-81.4-26.31-.44-128.08,31.47-166.55,43.63-40.8,12.81-126.58,120.05-149.56,110.06-135.57-58.83-127.08,53.19-339.43,49.71-178.37-3-184.2-99.42-412.37-116.35-144.4-10.64-232.84-48.41-312.28-106.81-56.13-41.24-58.46-51-129.58-91.39-73.45-42.11-119.08-55.57-144.06-89.87-37-51,72.11-140.46,39.47-175.19-27.15-29.31-131.58-18.45-151.56-41.68-18.32-21.06,161.72-150.66,175.21-179.53,13.32-29.09,19.48-59.91,12.66-91.82-14.49-68.17-77.12-89.66-85.78-186.48-2.66-31.48-7.16-81.62,27.65-117.66,42-43.2,102.76-26.48,124.58-66.86,15.82-29.74,81.94-100.29,60.79-78.58-55,56.87-265.65,18.23-302.95,40.16-25.82,15-304.29,111.8-250.49,21.27,10.32-17.58,44.8-82.27,97.59-92.48,268.31-51.66,301.13-73.15,330.27-69.46,36.48,4.56,102.1-37.34,131.24-76,21-27.35,23.32-53.19-17-58.83-50.13-7.17-155.55,4.56-262.64,17.58-117.59,14.55-237.34,30.39-287.63,24.75-91.61-10.2-99.1-12.81-112.76-31.7-7.83-10.63-7.66-26.7-1.16-43.85,12.82-34.51,51.13-73.59,97.76-79.88,46.8-6.3,63.79,25.4,116.09,34.95,131.4,23.44,124.07-102.25,264-96.39,108.92,4.78,218.67,66.43,288.13,48,56.46-15,7.82-92.7-4.34-167.59-28.81-176-197.36-259.2-173.21-352.54,13.66-53.19,105.76-76.42,154.39-81.41,112.09-11.29,192.87,93.56,223.85,40.38,8-13.68,78.78-250.52,37.31-384.24-7.83-25.4-112.93-79.45-110.43-90.31,16.66-71.2,270,17.59,307.29,34.74,211.85,96-145.4,337.34,23.81,416.14,31.31,14.77,56.3,27.14,105.43,33.44,172.21,21.92,220.68-89.23,343.76-58.4,78.44,19.54,125.57,81.41,186,63.17,22.49-6.95,38-22.14,62.62-16.28,26.82,6.3,46.3,33.21,53.3,54,19.82,59.7-40.3,140.24-120.25,148.49-55.29,5.86-74.95-99.43-102.93-109.41-62.29-22.58-63.29-.22-100.43-5.86-26.48-4.13-58.29,14.54-64.45,37.77-4.33,16.28-6.5,52.1,121.91,141.54,116.26,81.19,141.74,282.86,157.06,329.53,27.48,82.93-99.6-11.72-175.88,33.87-127.07,76-198.69-99.43-304.28-26.49-70.29,48.41-64.62,184.31-90.94,254.86-8.82,23.88-21.32,40.16-41.64,43.42-14.82,2.17-34.8-3.26-47.63,8.9-17.49,16.49-8,52.75,8.33,76,19.82,28.65,56.63,47.54,110.59,58.83,135.4,28.87,190.2-28.66,323.27-30,175-1.74,246.83,138.93,305.62,56,11.82-16.72,22.65-35,33.81-53.41,42-69.9,89.1-143.27,216.84-147,129.75-3.69,304,92.47,303.79,166.93-.17,30.61-13.49,66.21-30.81,62.52-20.49-4.55-35.31-62.08-52-64.69-15.49-2.6-41.64,40.6-39.64,87.92.16,2.39.33,4.78.5,6.95,4.33,42.11,29,73.81,35.47,82.27,107.43,139.37,264.82,354.5,296,483.45C6026.58,3191.44,5677.66,3482.55,5450.49,3317.56Z" transform="translate(7541.11 7813.79)" style="opacity:0.1"/><path d="M2178.42-289,808.65,742.58l-2494.21-6.21,392.73,1457.22,545.44,94.95-10.4,278.34,612.95,95-5.89,250.87,760.36,176.52,648.67-103.3,24.93-267.54,583.9-63.58,38.67-271.15,427.48-51.8Z" transform="translate(7541.11 7813.79)" style="opacity:0.1"/></g><g id="kids"><path d="M-1822.56-5769c-21,774.65-250.84,757.7-320.71,1124.92C-2301.46-3813.16-2393.12-3402-2704.6-3304c-274.39,85.92-613.54,54.88-621.4,317.51-10.59,362.9,345.83,1189.57,360.95,1149.63,36.9-97.7,98.72-110.62,280.47-205.45,56.52-29.3,307.36-116.37,367.61-9.76,50.64,89.64-120.11,192.8-213.93,342.5-207.07,330.44-451,255.44-534.45,489.05-31.79,89.07.59,195.1,51.62,302.85,90.88,193.09,240.83,390.2,182.14,499.1-93.23,173.26-468.69,68.1-493.42,103.73-85.58,123,127.57,149.7-234.74,786.44-76.35,134.18-191.37-84.48-314-9.77-110.3,67.23-261.82,100.85-374.29,185.9-133.85,101.43-300.68-127.29-440.82-401.12C-4794.89,39.73-4911.27-68-4909.51-252.2c.79-87.07,23-118.67,40.43-156,14.14-30.17,25.32-64.36,20-134.47-14.72-197.11-144.84-97.41-153.87-286.76-5.69-117.52,50.83-331.59,93.42-537.89,41-198.27,37.29-347.68,40-410.89,24.34-544.79,738.37-1299,781.75-1633.51,16.29-125.28-615.51,309.46-1068.89-312.91C-5462.8-4145-5455.14-5282.88-5270.25-5857c348.77-1083.83,1188-1534.37,1884.2-997.92,108.53-89.93,300.49-216.94,541.11-205.44C-2331.3-7035.63-1805.68-6394-1822.56-5769Z" transform="translate(7541.11 7813.79)" style="fill:#39b54a"/><path d="M7177.44-3818.62c-11,147.69,31,294.52,60.25,293.66,31-1.15,67.32-175.27,106-180.45,32.58-4.59,52,113.21,47.69,209.76-10.79,233.6-348.18,459.16-588,391.06C6504.62-3189.35,6462-3566.34,6369-3842.18c-96.18-285.61-250.44,124.7-574.68,43.1C5548-3860.86,5455-4065.44,5199.81-4033.83c-101.86,12.64-172.72,55.74-213.93,137.06-33.56,66.08-56.72,175.27-26.7,234.75,22,43.39,59.87,35.34,86.95,48.85,147,73.27,35.72,749.37,200.4,993.89,184.69,274.12,343.86-244.81,567.81,48.85,134.64,176.14,384.49-65.8,320.9,182.46-35.53,139.64-113.05,762-340.92,966-251.43,225.27-252.6,338.49-247.11,391.07,7.85,75.85,64,148.26,113.45,146.82,69.67-2,68.3,69,187.24,25.29,53.38-19.54,105.59-341.35,207.06-299.12,147,61.21,246.13,339.92,200.4,518.36-15.9,62.35-56.33,138.78-106.77,146.83-46.52,7.18-73-47.41-113.65-78.45-72.81-55.45-139.74,2.59-220.21,56-40.43,26.72-84.2,52.29-133.86,61.49-142.49,26.43-225.32-102-341.9-206.89-73.8-66.37-161.34-123.26-286.16-125.85-48.29-.86-84.6,6.61-116.79,18.39-29.24,10.63-55.15,25.29-83.8,40.51C4526.8-553.33,5152.32,359.25,4745.45,568.72c-72,37.06-554.67,206-574.69-24.71-3.14-35.35,199.61-159.19,218.26-235.62,90.28-374.69,13.34-1073.2-7.46-1202.79-1.57-9.48-2.94-15.8-3.73-19-26.1-95.11-84.4-58.33-164.08-14.66-71.25,39.08-159.37,83.62-256.72,44-48.29-19.53-118.75-61.48-176.45-122.69-49.46-52.87-89.3-120.1-97.55-200-30.62-303.43,294.21-490.77,374.09-1031.25,34-229.58,135.82-452.27,33.37-524.1-125.81-88.22-338.57,58-541.12,25.28-260.06-41.95-227.48-433.3-474.39-416.63-98.33,6.6-134.64,98.84-220.41,58.61-127.38-59.76-209.22-339.34-160.35-430.14,28.26-53.16,42.39-58,213.74-50.28,179.78,8,815.9,373.25,1013.34,372.38,181-.86-74.19-470.36-191.56-472.95-54.56-1.15-111.87-83.33-601.37-362-96.17-54.6-150.34-272.69-167-332.45-85.77-307.45,415.51,117.23,461,176.14,65.75,84.76,462,54.88,555.25,257.16,35.92,77.58-75.76-173-100.88-272.68C3842.6-4346.17,3727.39-4320,3656.34-4474c-59.27-127.86-43.38-283.6-33.37-381.29,30.43-300,149.76-340.5,187.05-548,17.27-97.12,10.6-196.26-10-293.38-20.41-96.83-334.25-581.56-297.35-639.89,40.43-63.79,232.38,15.23,287.34-64.37,65.36-95.1-123.26-423.53-46.91-567.2,51.42-96.83,138-119.53,280.67-219.23,137.58-96.26,143.47-125.57,254-230.73,155.84-148.56,325.42-228.72,594.51-199.7,425.31,46,450.63-254,781.74-185.91,393.92,81,361.14,429,621.4,303.14,44.16-21.26,186.65,352.85,260.64,410.89,69.48,54.59,253,198.84,301.67,208.89,62.61,12.93,123.06-155.45,186.07-214.64,445.53-419.22,1048.48,646.51,855.35,1623.74-77.34,391.35-401.38,997.92-621.4,1389C7243.58-4057.68,7187.84-3959.7,7177.44-3818.62Z" transform="translate(7541.11 7813.79)" style="fill:blue"/></g><g id="Layer_9" data-name="Layer 9"><path d="M-7186,3587.18c450.44,626.11,1355.25,1175.49,2562.12,1586.38V6988.09C-5830.8,6577.2-6735.61,6028.1-7186,5401.71Z" transform="translate(7541.11 7813.79)" style="fill:#0000a4;opacity:0.93"/><path d="M8500.5,3605.28V5419.81C8046.72,6037,7150.94,6578.64,5959.77,6985.5V5170.69C7150.94,4764.11,8046.72,4222.77,8500.5,3605.28Z" transform="translate(7541.11 7813.79)" style="fill:#0000d7;opacity:0.93"/><path d="M7003.33,6982.05h-.2C5505.39,7719.64,3222,8190.87,663.78,8190.87S-4178,7719.64-5675.57,6982.05h-.2V5140.23h9c1497.74,735,3777.23,1204.22,6330.52,1204.22,2553.09,0,4832.58-469.22,6330.52-1204.22Z" transform="translate(7541.11 7813.79)" style="fill:blue"/><path d="M-5229.94,6974c-19.38-4-37.85-15.52-48.72-32.06a84.14,84.14,0,0,1-12.77-57.06c10.66-72.93,23.15-147.32,36.17-220.69,6.9-38.82,14.16-77.68,19.47-116.78q20.25-171.68,40.54-343.35c-57.14-34.05-118.59-64.54-184.42-75.21-22.37-3.63-110.56-19.73-113.52,16.39-1.26,15.37,12.54,32.75,21.23,45.91,7.89,13.72,13.59,27.38,10.82,43-3.48,19.61-12,34.78-27.15,47.93-13.45,11.66-33.71,16.93-51.77,13.58-34.36-6.36-57.94-39.78-73.41-67.63-19-34.17-31.9-73.32-26.29-113.61,7.63-54.79,48-91.75,95-113.9,52.2-24.58,111.09-34.72,169.58-25.08,149.55,24.65,287.5,109.89,409,195.65,117.51,83,244.15,177,321.78,300.2,46.93,74.5,83.27,161.73,72.24,251.52-13.31,108.36-60,209.26-153.43,271.5-94.59,63-209.62,75.42-319.83,59.31-33.8-4.94-66.83-17.37-98-30.42C-5173.63,7010.47-5204.65,6995.78-5229.94,6974Zm171.23-678.33c-8.46,79.1-18.46,158-28.71,236.93q-24.75,160.55-49.56,321.09c35.76,29.53,76.09,48.05,121.07,55.11,68.82,10.79,143.92,5.41,204.17-35.14,57.68-38.83,85.51-101.34,94.16-168.13,9.24-71.23-30.42-139-74.85-192.18C-4866.07,6425.23-4963,6357.48-5058.71,6295.65Z" transform="translate(7541.11 7813.79)" style="fill:red"/><path d="M-4058.87,7167.7c-29.82-4.35-55.8-39.78-73.84-60.62-30.12,10.54-60.83,20.64-91.87,26.61-21.32,4.1-44,7.48-65.93,4.4-71.81-10.11-145-37.36-187.61-99.6-45.39-66.26-48.8-152.22-39.74-228.43,10.51-88.41,52.86-165.17,122.51-221.45,67.19-54.3,152.49-78.26,238.71-67.38,41,5.17,80.09,24.36,114.39,45.44,32,19.69,76.37,51.32,72,95.21-1.28,12.79-10.63,25.57-16,34-8,12.5-10.52,37-14.2,55.64-5.16,26.11-8.5,52.92-11.26,79.41-5.3,50.9-11.46,105.82-1.54,156.84,5.44,20.78,12.41,41.24,18.81,61.71,5.68,18.15,15.92,39.88,15.44,57.85-.47,17.33-11.8,36.37-27.06,46.92C-4021.07,7164.59-4040.47,7170.38-4058.87,7167.7Zm-93.25-401.21c1.5-14,4.06-27.86,6.91-41.53,3.61-17.3,8.2-34.57,12.9-51.72a117.49,117.49,0,0,0-18.15-10.7,51,51,0,0,0-13.93-4.39c-49.85-6.45-97.65,11.26-134.33,43.89-39.83,35.43-64.34,80.4-70.52,132.91-4.51,38.26-5.58,82.38,13,118.09,14.61,28,42.59,44.73,73.54,48.7a181,181,0,0,0,64.79-3.38c21.6-5.26,41.43-15.3,60.18-27.17C-4158.43,6903.09-4159.4,6834.17-4152.12,6766.49Z" transform="translate(7541.11 7813.79)" style="fill:red"/><path d="M-3324.62,6733.37q-110,194.09-222.75,386.6c-45.25,77-89.89,154.68-129.08,235-14.73,33.86-30.3,67.52-46,100.78-14,29.62-41.41,49.76-75.12,45.51-19.74-2.5-39.39-12.51-52.59-27.49s-20.68-35.68-18.24-55.76c4.24-34.93,24.1-70.41,39.29-101.6,33-67.64,69.77-133.4,106.73-198.91-47.48-130-100.19-258.11-152.3-386.29-7.25-15.7-15.36-31.7-21.85-47s-11-32.14-9.61-49.61c1.59-20.15,13.38-38.77,28.53-51.31s35.65-19.31,55.32-17c22.21,2.62,41.38,14.76,52.34,34.46,60.9,108.91,104.54,227.69,146.55,344.83,28.38-51.76,56.39-103.75,85.31-155.22,27.65-48.16,56.5-95.67,88.35-141.2,15.35-21.91,39.75-37.17,66.91-34.24,19.43,2.09,38.49,13,51.62,27.36,13.48,14.71,20.8,35.49,18.92,55.53C-3313.48,6710.4-3318.3,6722.48-3324.62,6733.37Z" transform="translate(7541.11 7813.79)" style="fill:red"/><path d="M-2323.4,6896.65c65.66,40.93,129.18,100.55,124.06,184.44-4.84,79.49-69.24,134.16-132.92,171.35-108.28,63.24-247.69,62.75-368.93,52.53-22.52-1.9-41.69-17-54.4-34.34-12.89-17.62-24.41-38.87-22.2-62l11.7-157.66c7.39-99.35,22.23-198.34,36.08-296.94q8.82-75.4,17.6-150.82,2-27.42,4-54.84c-41.42,8-83.4,17.39-122,34.2-16.36,7.11-44.54,16-52.73,34a74.24,74.24,0,0,1,12,47.12c-1.7,19.39-11.38,38.91-26.9,51-17.31,13.47-39.86,18.14-61.54,16.08-24.67-2.34-44.2-17.92-55.49-39.53-13.69-26.22-17-55.28-15.06-84,5.78-86.89,75.12-143.77,150.69-176.08,118.31-50.59,256.51-48.65,383.41-38.83,76,5.89,145.54,42.47,196,98.3,49.11,54.41,80.34,122.43,75.15,196.95C-2230.49,6767.35-2260.65,6843.57-2323.4,6896.65ZM-2536.13,6974l-26.06.15c-16.88.06-33.56-3.08-50-6.49-3.55,32.27-6.65,64.57-9,96.95l-6.3,89.14c71.14.25,153.42.37,218-33.1,18.11-9.4,66.77-29.93,67.44-50.21.48-14.86-30.51-30.69-43.18-38.1-30.45-17.82-63.41-32.25-96.92-44.75Q-2509.18,6980.81-2536.13,6974Zm-27.37-429.31q-3.2,37.95-6.41,75.91-11.19,94.18-22.43,188.37c17.85,3.5,36,7.8,53.94,9.67,38,3.95,75.41-14.22,106.61-33.87,37.8-23.81,59.95-63.81,63.24-108.21,2.78-37.49-20.08-69.14-46.64-92.16C-2454.91,6550-2512.13,6544.31-2563.5,6544.69Z" transform="translate(7541.11 7813.79)" style="fill:#ff0"/><path d="M-1545.18,6875.26q-101.65,199.41-206.09,397.39c-41.93,79.22-83.21,159-119,241.26-13.29,34.57-27.4,69-41.68,103-12.71,30.25-39.08,51.76-73.06,49.23-19.79-1.47-39.82-10.5-53.64-24.81s-22.13-34.67-20.54-54.78c2.77-35.17,21.1-71.55,34.94-103.47,30-69.24,64-136.78,98.17-204.07-52.83-127.44-110.82-252.79-168.21-378.22-7.9-15.31-16.66-30.9-23.78-45.89s-12.31-31.58-11.67-49.07c.75-20.25,11.74-39.42,26.32-52.7s34.7-21.08,54.49-19.74c22.24,1.5,41.9,12.65,53.68,31.79,65.39,105.8,113.9,222.25,160.73,337.1,26.15-53.14,51.93-106.48,78.63-159.34,25.58-49.52,52.38-98.42,82.25-145.5,14.36-22.6,38-39.13,65.34-37.57,19.45,1.11,39,11.06,52.68,24.74a73.1,73.1,0,0,1,21.21,54.52C-1535,6851.78-1539.33,6864.08-1545.18,6875.26Z" transform="translate(7541.11 7813.79)" style="fill:#ff0"/><path d="M-914,7392c-19.54-1.65-39.07-10.84-51.53-26a83.11,83.11,0,0,1-18.39-55.18c3.24-73.78,8.13-149.23,13.67-223.69,2.94-39.42,6.22-78.9,7.56-118.42q2.82-173.07,5.67-346.14c-60.2-27-124.28-49.86-190.38-52.52-23.13-.93-111.55-6.31-110.89,30,.28,15.32,15.7,31,25.66,43.07,9.25,12.76,16.22,25.68,15,41.41-1.49,20-8.42,36.05-22.09,50.9-12.08,13.13-31.57,20.9-49.95,19.75-34.61-2.16-61.44-32.57-79.57-58.37-22.37-31.84-39-69.27-37.47-109.74,2.06-55.52,38.39-97,82.76-124.67,49-30.55,106.28-47.91,165.57-45.37,150.14,6.44,295.84,74.44,425.14,145.17,124.75,68.24,260,146.59,349.32,259.61,54.34,68.77,98.85,151.29,97,241.29-2.32,109.84-38.79,215.46-124.88,288.32C-498.71,7425-611.3,7451.65-723,7448.91c-33.92-.84-68-9.21-100.19-18.44C-854.42,7421.53-886.68,7410.68-914,7392Zm101.58-694.82c-.44,79.66-2.41,159.31-4.65,238.94q-8.4,162.56-16.85,325.1c37.26,26,81.39,38.64,125.59,40.19,69.84,2.46,143.63-12.26,198.94-59.52,53.12-45.38,74.61-110.7,76.49-178.44,2-71.41-43.85-134.21-93.54-182C-608.29,6802.75-711.36,6747.08-812.4,6697.21Z" transform="translate(7541.11 7813.79)" style="fill:lime"/><path d="M267.1,7443.55c-29.84-.72-59.39-32.84-79.36-51.36-28.8,14.09-58.23,27.81-88.49,37.5-20.68,6.62-42.85,12.74-65,12.31-71.86-1.39-147.42-19.48-196.15-76.4-52-60.76-63.68-146-62.4-222.26,1.51-89.46,36.07-170.83,99.25-234.86A319.44,319.44,0,0,1,105,6812.78c41,.2,81.87,14.58,118.08,31.4,33.87,15.73,81,42,81,86,0,12.94-8,26.68-12.47,35.72-6.68,13.39-6.72,38-8.5,57-2.49,26.55-3.1,53.61-3.18,80.28-.14,51.12-.77,106.39,14.26,156.08,7.48,20,16.47,39.5,24.88,59.07,7.46,17.36,19.82,37.82,21.14,55.64,1.28,17.41-8.09,37.61-22.13,49.89C304.38,7435.84,285.77,7444,267.1,7443.55ZM134.2,7056c.09-14.06,1.23-28.18,2.68-42.1,1.84-17.64,4.66-35.36,7.6-53a114.68,114.68,0,0,0-19.09-8.45,50.28,50.28,0,0,0-14.27-2.69c-50.45-.41-95.95,23.18-128.86,59.8-35.81,39.85-55.74,87.43-56.59,140.59-.62,38.34,2.64,82.37,24.81,115.8,17.36,26.19,46.9,39.34,77.86,39.55a181.75,181.75,0,0,0,64-11.16c20.94-7.85,39.6-20.22,57-34.25C141.68,7192.48,133.79,7124,134.2,7056Z" transform="translate(7541.11 7813.79)" style="fill:lime"/><path d="M952.17,6923.51Q862.5,7129.67,770,7334.57c-37.15,82-73.63,164.5-104.46,249.11-11.22,35.44-23.28,70.78-35.52,105.7-10.87,31-35.84,54.4-70,54.27-19.76-.07-40.3-7.65-55-21s-24.12-33.14-23.72-53.23c.71-35.38,16.84-72.9,28.77-105.71,25.91-71.23,55.83-141,85.91-210.55-60.19-123.43-125.41-244.46-190-365.61-8.77-14.73-18.43-29.67-26.42-44.13s-14.14-30.69-14.52-48.15c-.45-20.33,9.42-40.19,23.15-54.43s33.29-23.47,53.19-23.54c22.2-.07,42.51,9.64,55.41,28,71.5,101,126.72,213.84,180.16,325.1,23-54.86,45.55-109.91,69.06-164.54,22.61-51.22,46.47-101.91,73.49-151,13-23.51,35.55-41.72,63-42.09,19.4-.26,39.47,8.28,54,21a72.29,72.29,0,0,1,24.38,52.92C960.93,6899.4,957.35,6912,952.17,6923.51Z" transform="translate(7541.11 7813.79)" style="fill:lime"/><path d="M1603.09,6898.62c-27.86-97.66-59.13-205-122.22-286.71-39.78-51.54-96.31-87.81-162.06-93.38-12.35,8.26-26.22,10.58-40.33,11.36-17.87,1-36-8.83-47.18-22.91-13.78-17.28-19.16-38.33-20.12-59.72-1.07-24,7.38-48.82,27.21-64.27,19.37-15.1,43.48-22.34,67.87-22.92,108.54-2.58,205.37,45.85,273.37,129.67,49.81,61.4,81.31,138.15,108.87,211.56,44.75,119.23,78,242.67,108.29,366.22,7.54,30.95,15.36,62.09,26.91,91.84q13.62-70.51,27.15-141c20-103.86,39.51-208.55,55.28-312.6,7.23-47.72,11.42-105.24,33.45-148.28,11.5-22.48,37.65-31.33,62.16-32,35.68-1,58.64,32.3,73.78,59.64,40.27,72.75,59.28,161.85,81.07,242.14,24,88.55,51.56,176.81,82,263.75q18.49-85.58,36.84-171.19c21.86-101.65,44-205.75,81.74-302.26,14.6-37.39,39.91-101.31,88.49-104.34,46.33-2.89,73.63,26.46,74.76,70.74.46,17.89-6.21,37.1-11.06,54.48-10.63,38.08-23.25,75.63-35.88,113.05-27.4,81.11-56,163.11-73.88,247q-36.53,166.23-73.71,332.31-2.82,16.22-5.63,32.43a70.11,70.11,0,0,1-11.86,27.6c-6.51,8.86-16.18,14.77-25.64,19.15-13.17,6.11-28.81,7.54-43.6,8.59-17.81,1.25-37.47-4.42-49.92-18.12-19.19-21.12-26.41-53.27-32.24-79.86-17.8-81.28-52.11-163-83.64-240.91-25-60.86-42.89-124.28-57.61-188.34-19.63,113.34-39.75,226.71-64.44,339.07-10.55,48-17.94,105.52-42.27,148.86-16.16,28.77-43.62,54.53-78.29,55.71-13.7.46-28-2-40.14-8.74-10.43-5.78-20-13.84-26.15-23.93-14.92-24.61-23.49-54.85-33.4-82.17q-22.68-64.23-45.27-128.5Q1644.22,7045.17,1603.09,6898.62Z" transform="translate(7541.11 7813.79)" style="fill:#f7931e"/><path d="M2832.11,7059.79c2,34.89,5,69.73,7.9,104.54s5.82,69.75,7.92,104.54c1.2,19.87-4.74,41.14-18.07,56.07-13.14,14.73-33,24-52.67,25.08-19.33,1.1-40.51-4.57-55.05-17.91s-23.35-33.51-24.17-53.26c-1.44-34.47-4.77-69.74-7.55-104.57s-5.63-69.68-7.54-104.57c-2.34-42.59-2.09-85.3-1.49-127.93s1.26-85.89-1.52-127.93c-1.31-19.8,5.14-40.82,18-56,12.68-15,32.71-23.48,51.94-25s39.81,5,54.34,17.86c14.87,13.16,23,33.52,24.08,53.19,2.33,42.48,2.42,85.29,2,127.92S2829.61,7017.22,2832.11,7059.79Zm-69.59-416.16c-22.31,1.5-44.82-5.9-60.77-20.66-17.42-16.11-26.38-34.91-28.41-58.43-1.92-22.14,6.51-44.78,21.81-61.7,15-16.59,35.44-27,57.83-28.53,22.18-1.5,44.54,5.85,60.34,20.58,17.21,16,27,35.5,28.31,58.33,1.34,23-6.19,43.61-21.37,61.78C2806.28,6631.74,2784.91,6642.12,2762.52,6643.63Z" transform="translate(7541.11 7813.79)" style="fill:#f7931e"/><path d="M3341.33,6828.1c-7.44.53-16.42,1.08-26.68,1.36s-19.17.73-26.68,1.33c-17.13,1.37-34,4.89-50.79,8.71,11,100.14,23.25,200.48,30.06,301,.33,4.95,1.16,14.2,2.41,27.67,1,10.91,2.1,21.94,2.76,32.82,3.25,53.1-1.35,132-70,137.74a78.24,78.24,0,0,1-53-15.42c-15.1-11.63-26.26-30.18-27.23-49.62-1-20.32-1.78-41.25-2.32-61.87s-1-41.29-2.32-61.87c-6.26-98.57-18.16-197.12-28.64-295.4-33.82.75-67.74-.63-101.48-1.9-42.09-1.58-69.07-27.39-71.95-69.17a83.44,83.44,0,0,1,17.13-55.79c12.1-15.48,31.65-24.84,51.2-26.12,30.33-2,61.17-.53,91.57,0-1.9-20.16-4.19-40.34-6.53-60.39-2.19-18.73-4.28-37.79-5.74-56.44-1.54-19.64,5.57-40.16,18.51-54.84s32.09-23.73,51.48-25.24c71.32-5.52,84.39,83.54,88.55,136.07q1,23.47,2.08,47c17.73-4,35.66-8.14,53.78-9.53,27.48-2.12,57.6-5.59,84.74,1.58,30.39,8.89,45.93,35.71,47.86,66.07,1.24,19.57-4.26,40.88-17.08,56.07A76.12,76.12,0,0,1,3341.33,6828.1Z" transform="translate(7541.11 7813.79)" style="fill:#f7931e"/><path d="M3635.46,6739.11c22.57-27.12,48.21-51.84,79.16-69.19a240.61,240.61,0,0,1,94-29.41c48.31-4.76,101.85,2.52,136.35,41.77,29.28,33.31,41,80.78,47.21,122.42,6.8,45.48,10.84,94.87,17.94,140.34,5.65,36.18,12.94,74.26,20.37,110.74s16.33,73.17,27.91,108.81a98.38,98.38,0,0,1,4.53,20.83c1.76,19.83-4.93,40.67-18.54,55.14-13.4,14.25-32.66,24.51-52.31,26.32-35.49,3.25-63.8-16.81-75.92-50-15.05-41.15-25.6-85-34.57-127.79-9-43.06-17.09-87.29-20.58-131.48-1.13-14.36-1.68-28.83-2.18-43.23s-1-28.89-2.18-43.23c-1.3-16.19-2-32.93-5.09-49-3.36-15.48-13.12-30.28-30.52-28.68-43.92,4.05-79,33.35-103.48,68.55-25.17,35.43-53.85,84.82-59.3,117.09-7,41.49,8,110.64,8,166,0,27.44,1.08,58.31-7.85,84.68-9.9,29.27-32.85,50-63.82,52.93-19.65,1.88-40.26-4.57-55.68-16.62s-26.44-30.9-27.5-50.77c-.55-10.29,2.08-21,3.75-30.8,8.15-48-1.17-106.29-4.82-154.81-9.37-124.61-19.4-254.81-27-382.27-.13-7.58-.19-11.37-.32-18.95-.8-30.17-1.27-60.49-3.43-90.54-1.25-17.44-5.24-34.74-8.91-51.82s-7.3-34.47-8.9-51.83a75.3,75.3,0,0,1,17.9-55.33c12.71-14.57,32-23.65,51.12-25.53,36.57-3.62,63.18,21.71,75.38,54.12,12.36,32.82,15.48,69.51,18.21,104.15,3,38.5,4.8,77.48,5.72,116.22C3631,6665.06,3632.74,6702.12,3635.46,6739.11Z" transform="translate(7541.11 7813.79)" style="fill:#f7931e"/><path d="M5084.41,6781.62c-63.29,14.82-125.08,36.41-179.95,71.88-9.81,5.75-19.57,10.68-30.94,12-18.89,2.18-39.13-4.28-52.89-17.58-14.09-13.63-24.26-32.82-25.95-52.72-4.87-57.28,53.09-92.49,97.1-114.05,90-44.1,194.17-61.39,293.26-75.3,20.85-2.93,41.62,2.93,57.18,17s25.35,35.12,27.41,55.72c2.82,28.23-8.79,58.34-17.47,85-17.56,47.42-35.82,95.65-46.86,145-8,35.73-7.58,73.28-3.54,109,9.64,85.26,42.8,164.08,101.56,228.72,14.66,14.83,30.54,31.59,33.22,53.19,2.57,20.71-1.83,43.33-13.46,60.77-12,18-31.66,28.61-52.9,31.49-13.11,1.78-26.94-.25-38.43-6.63-22.65-12.59-40.6-36.55-56.94-56.16a444.61,444.61,0,0,1-65-105.68c-18.19-41.42-30.35-85.57-39.16-130.5-50.95,42.77-114.06,65.75-178.89,74.38-75.09,10-156.5-.85-214.07-55-62.82-59.05-84.65-150.54-92.42-232.84-13.6-144.11,21.28-287,78.72-418.21,44.26-101.15,116-225.29,238-241,52.81-6.79,106.57,8.33,154.36,27.63,35.29,14.26,89.9,37.85,95.12,82.46,2.39,20.43-3.13,42.2-15.23,58.67-11.18,15.21-28.68,27.71-47.75,30.1-15.69,2-31.76-5.23-45.68-11.81-37.7-18.14-81.28-37.27-124-31.67-25.75,3.38-46.16,25.75-61.49,45-28.83,36.2-50.33,78.52-69.69,119.94-47.05,100.68-68.79,210.94-57.47,321.44,4.21,41.11,10.56,95.32,41.2,127,26.24,27.13,69.7,26.75,103.95,22.81,53.33-6.15,99.56-34.17,136-72.53C5052.22,6896.18,5074.5,6840.32,5084.41,6781.62Z" transform="translate(7541.11 7813.79)" style="fill:#f15a24"/><path d="M5621,7063.7c-64.7,9.71-129-7.64-180.86-47.31-63.62-48.66-96.19-122.66-107.42-199.26-11.76-80.27,1-160.65,38.61-233.08,42.71-82.25,120.21-134.7,212.07-148.61,68.91-10.44,134.49,14.12,181.29,65.29,49.16,53.73,73.75,123.39,82.88,193.87,10.3,79.45,1,162.74-37.87,235C5770.41,7002.69,5703.18,7051.35,5621,7063.7Zm-26-477.31c-45.55,6.41-78.28,37.63-96.2,78.83-18.06,41.53-22.39,87.18-17,130.79,4.58,37,17.76,75.32,49.28,99.25,20.53,15.59,45.91,22.92,71.53,19.05a120.82,120.82,0,0,0,77.31-45.56c24.42-31.64,32.25-73.36,28.68-112.46C5702.81,6692.74,5685.14,6573.71,5595,6586.39Z" transform="translate(7541.11 7813.79)" style="fill:#f15a24"/><path d="M6291.82,6341.88c-9.3-89.38-20.2-179.64-21.24-269.54-.46-39.47,19.11-71.16,59.24-78.51,18.4-3.37,38.76,1.19,53.34,13.1,14.82,12.09,24.05,31,26.74,49.87,11.72,82.33,17.86,165.92,23.81,249s11.74,166.59,23.67,249c12.89,89,22.87,183,51.52,268.83a97.88,97.88,0,0,1,4,16.31c2.84,19.26-2,40.2-14.11,55.46-11.52,14.48-29,25.77-47.32,28.9-25.31,4.33-49.53-6.55-64.72-27.29-22.17,18.56-45.3,33.4-71.91,43.09-25.73,9.37-53.22,15.92-80.63,20.6-74.2,12.68-151.18-2.46-211.95-48.6-63.93-48.56-98.87-120.73-109.16-198.2-11.77-88.61-1-181.75,48.91-259.29,45.35-70.48,117.37-115.43,199-128.07,23.88-3.7,48.37-5.45,72.62-2.78C6253.76,6326,6274.09,6332,6291.82,6341.88Zm14.48,180.22c-6.55-17-31.41-36.35-53.46-45.54s-46.73-10.49-69.78-6.4c-44.7,7.94-87.6,27.09-112.1,67.84-27.26,45.33-26.22,101.1-20.08,151.81,4.75,39.22,25.94,74.34,57.16,98,30.23,22.89,68.75,33.84,106.13,27.32,21-3.67,43.43-8.38,61.61-20.62,17-11.92,30.85-29.16,44.45-44.53,5.35-6.3,14.17-15.13,15.28-20.54C6344.36,6686.26,6325.54,6571.87,6306.3,6522.1Z" transform="translate(7541.11 7813.79)" style="fill:#f15a24"/></g></svg>